# Blender v2.90.1 OBJ File: 'Car.blend'
# www.blender.org
mtllib FlagStand.mtl
o Cube.006_Cube.009
v -3.578012 3.014797 1.587096
v -3.578012 3.339374 1.587096
v -3.578012 3.014797 -0.278700
v -3.578012 3.339374 -0.278700
v 2.678847 3.014797 1.587096
v 2.678847 3.339374 1.587096
v 2.678847 3.014797 -0.278700
v 2.678847 3.339374 -0.278700
v -3.440433 -0.460046 1.262645
v -3.440433 3.061438 1.262645
v -3.440433 3.061438 -0.165760
v -3.440433 -0.460046 -0.165760
v -3.418061 3.061438 -0.163557
v -3.418061 -0.460046 -0.163557
v -3.396549 3.061438 -0.157031
v -3.396549 -0.460046 -0.157031
v -3.376723 3.061438 -0.146434
v -3.376723 -0.460046 -0.146434
v -3.359346 3.061438 -0.132173
v -3.359346 -0.460046 -0.132173
v -3.345085 3.061438 -0.114795
v -3.345085 -0.460046 -0.114795
v -3.334487 3.061438 -0.094970
v -3.334487 -0.460046 -0.094970
v -3.327962 3.061438 -0.073457
v -3.327962 -0.460046 -0.073457
v -3.325758 3.061438 -0.051085
v -3.325758 -0.460046 -0.051085
v -3.327962 3.061438 -0.028714
v -3.327962 -0.460046 -0.028714
v -3.334487 3.061438 -0.007201
v -3.334487 -0.460046 -0.007201
v -3.345085 3.061438 0.012624
v -3.345085 -0.460046 0.012624
v -3.359346 3.061438 0.030002
v -3.359346 -0.460046 0.030002
v -3.376723 3.061438 0.044263
v -3.376723 -0.460046 0.044263
v -3.396549 3.061438 0.054860
v -3.396549 -0.460046 0.054860
v -3.418061 3.061438 0.061386
v -3.418061 -0.460046 0.061386
v -3.440433 3.061438 0.063589
v -3.440433 -0.460046 0.063589
v -3.462805 3.061438 0.061386
v -3.462805 -0.460046 0.061386
v -3.484317 3.061438 0.054860
v -3.484317 -0.460046 0.054860
v -3.504143 3.061438 0.044263
v -3.504143 -0.460046 0.044263
v -3.521521 3.061438 0.030002
v -3.521521 -0.460046 0.030002
v -3.535782 3.061438 0.012624
v -3.535782 -0.460046 0.012624
v -3.546379 3.061438 -0.007201
v -3.546379 -0.460046 -0.007201
v -3.552905 3.061438 -0.028714
v -3.552905 -0.460046 -0.028714
v -3.555108 3.061438 -0.051086
v -3.555108 -0.460046 -0.051086
v -3.552905 3.061438 -0.073457
v -3.552905 -0.460046 -0.073457
v -3.546379 3.061438 -0.094970
v -3.546379 -0.460046 -0.094970
v -3.535781 3.061438 -0.114795
v -3.535781 -0.460046 -0.114795
v -3.521520 3.061438 -0.132173
v -3.521520 -0.460046 -0.132173
v -3.504143 3.061438 -0.146434
v -3.504143 -0.460046 -0.146434
v -3.484317 3.061438 -0.157031
v -3.484317 -0.460046 -0.157031
v -3.462805 3.061438 -0.163557
v -3.462805 -0.460046 -0.163557
v -3.418061 3.061438 1.264849
v -3.418061 -0.460046 1.264849
v -3.396549 3.061438 1.271374
v -3.396549 -0.460046 1.271374
v -3.376723 3.061438 1.281971
v -3.376723 -0.460046 1.281971
v -3.359346 3.061438 1.296233
v -3.359346 -0.460046 1.296233
v -3.345085 3.061438 1.313610
v -3.345085 -0.460046 1.313610
v -3.334487 3.061438 1.333436
v -3.334487 -0.460046 1.333436
v -3.327962 3.061438 1.354948
v -3.327962 -0.460046 1.354948
v -3.325758 3.061438 1.377320
v -3.325758 -0.460046 1.377320
v -3.327962 3.061438 1.399692
v -3.327962 -0.460046 1.399692
v -3.334487 3.061438 1.421204
v -3.334487 -0.460046 1.421204
v -3.345085 3.061438 1.441030
v -3.345085 -0.460046 1.441030
v -3.359346 3.061438 1.458407
v -3.359346 -0.460046 1.458407
v -3.376723 3.061438 1.472669
v -3.376723 -0.460046 1.472669
v -3.396549 3.061438 1.483266
v -3.396549 -0.460046 1.483266
v -3.418061 3.061438 1.489791
v -3.418061 -0.460046 1.489791
v -3.440433 3.061438 1.491995
v -3.440433 -0.460046 1.491995
v -3.462805 3.061438 1.489791
v -3.462805 -0.460046 1.489791
v -3.484317 3.061438 1.483266
v -3.484317 -0.460046 1.483266
v -3.504143 3.061438 1.472669
v -3.504143 -0.460046 1.472669
v -3.521521 3.061438 1.458407
v -3.521521 -0.460046 1.458407
v -3.535782 3.061438 1.441030
v -3.535782 -0.460046 1.441030
v -3.546379 3.061438 1.421204
v -3.546379 -0.460046 1.421204
v -3.552905 3.061438 1.399692
v -3.552905 -0.460046 1.399692
v -3.555108 3.061438 1.377320
v -3.555108 -0.460046 1.377320
v -3.552905 3.061438 1.354948
v -3.552905 -0.460046 1.354948
v -3.546379 3.061438 1.333436
v -3.546379 -0.460046 1.333436
v -3.535781 3.061438 1.313610
v -3.535781 -0.460046 1.313610
v -3.521520 3.061438 1.296232
v -3.521520 -0.460046 1.296232
v -3.504143 3.061438 1.281971
v -3.504143 -0.460046 1.281971
v -3.484317 3.061438 1.271374
v -3.484317 -0.460046 1.271374
v -3.462805 3.061438 1.264849
v -3.462805 -0.460046 1.264849
v 2.662069 -0.163045 1.584545
v 2.662069 3.337645 1.584545
v 2.662069 -0.163045 -0.274465
v 2.662069 3.337645 -0.274465
v 4.969874 -0.163045 1.584545
v 2.703740 3.337645 1.584545
v 4.969874 -0.163045 -0.274465
v 2.703740 3.337645 -0.274465
v -3.578012 3.014797 -0.114494
v -3.578012 3.339374 -0.114494
v 2.678847 3.014797 -0.114494
v 2.678847 3.339374 -0.114494
v -3.578012 3.014797 1.385349
v 2.678847 3.339374 1.385349
v -3.578012 3.339374 1.385349
v 2.678847 3.014797 1.385349
v -3.578012 3.585028 -0.114494
v -3.578012 3.585028 -0.278700
v 2.678847 3.585028 -0.278700
v 2.678847 3.585028 -0.114494
v 2.678847 3.586498 1.385349
v 2.678847 3.586498 1.587096
v -3.578012 3.586498 1.587096
v -3.578012 3.586498 1.385349
v 0.127874 3.014797 -0.278700
v 0.127874 3.339374 -0.278700
v 0.127874 3.014797 1.587096
v 0.127874 3.339374 1.587096
v 0.127874 3.339374 -0.114494
v 0.127874 3.014797 -0.114494
v 0.127874 3.339374 1.385349
v 0.127874 3.014797 1.385349
v 0.127874 3.585028 -0.278700
v 0.127874 3.585028 -0.114494
v 0.127874 3.586498 1.587096
v 0.127874 3.586498 1.385349
v -0.379002 3.014797 -0.278700
v -0.379002 3.339374 1.587096
v -0.379002 3.014797 -0.114494
v -0.379002 3.014797 1.385349
v -0.379002 3.586498 1.587096
v -0.379002 3.339374 -0.278700
v -0.379002 3.014797 1.587096
v -0.379002 3.339374 -0.114494
v -0.379002 3.339374 1.385349
v -0.379002 3.585028 -0.278700
v -0.379002 3.585028 -0.114494
v -0.379002 3.586498 1.385349
v -0.311317 3.296031 -0.278700
v 0.060189 3.296031 -0.278700
v 0.060189 3.058139 -0.278700
v -0.311317 3.058139 -0.278700
v -0.311317 3.296031 -0.573375
v 0.060189 3.296031 -0.573375
v 0.060189 3.058139 -0.573375
v -0.311317 3.058139 -0.573375
v 2.662069 3.011202 1.584545
v 2.662069 3.011202 -0.274465
v 2.915059 3.011202 -0.274465
v 2.915059 3.011202 1.584545
vt 0.296822 0.485388
vt 0.250000 0.490000
vt 0.203179 0.485389
vt 0.158156 0.471731
vt 0.116663 0.449553
vt 0.080295 0.419706
vt 0.050447 0.383337
vt 0.028269 0.341844
vt 0.014612 0.296822
vt 0.010000 0.250000
vt 0.014611 0.203179
vt 0.028269 0.158156
vt 0.050447 0.116663
vt 0.080294 0.080294
vt 0.116663 0.050447
vt 0.158156 0.028269
vt 0.203178 0.014612
vt 0.250000 0.010000
vt 0.296822 0.014612
vt 0.341844 0.028269
vt 0.383337 0.050447
vt 0.419706 0.080294
vt 0.449553 0.116663
vt 0.471731 0.158156
vt 0.485388 0.203178
vt 0.490000 0.250000
vt 0.485388 0.296822
vt 0.471731 0.341844
vt 0.449553 0.383337
vt 0.419706 0.419706
vt 0.383337 0.449553
vt 0.341844 0.471731
vt 1.000000 0.500000
vt 1.000000 1.000000
vt 0.968750 1.000000
vt 0.968750 0.500000
vt 0.093750 0.500000
vt 0.093750 1.000000
vt 0.062500 1.000000
vt 0.062500 0.500000
vt 0.937500 1.000000
vt 0.937500 0.500000
vt 0.125000 0.500000
vt 0.125000 1.000000
vt 0.906250 1.000000
vt 0.906250 0.500000
vt 0.156250 0.500000
vt 0.156250 1.000000
vt 0.875000 1.000000
vt 0.875000 0.500000
vt 0.187500 0.500000
vt 0.187500 1.000000
vt 0.843750 1.000000
vt 0.843750 0.500000
vt 0.218750 0.500000
vt 0.218750 1.000000
vt 0.812500 1.000000
vt 0.812500 0.500000
vt 0.250000 0.500000
vt 0.250000 1.000000
vt 0.781250 1.000000
vt 0.781250 0.500000
vt 0.281250 0.500000
vt 0.281250 1.000000
vt 0.750000 1.000000
vt 0.750000 0.500000
vt 0.312500 0.500000
vt 0.312500 1.000000
vt 0.718750 1.000000
vt 0.718750 0.500000
vt 0.343750 0.500000
vt 0.343750 1.000000
vt 0.687500 1.000000
vt 0.687500 0.500000
vt 0.375000 0.500000
vt 0.375000 1.000000
vt 0.656250 1.000000
vt 0.656250 0.500000
vt 0.406250 0.500000
vt 0.406250 1.000000
vt 0.625000 1.000000
vt 0.625000 0.500000
vt 0.437500 0.500000
vt 0.437500 1.000000
vt 0.593750 1.000000
vt 0.593750 0.500000
vt 0.468750 0.500000
vt 0.468750 1.000000
vt 0.562500 1.000000
vt 0.562500 0.500000
vt 0.500000 0.500000
vt 0.500000 1.000000
vt 0.531250 1.000000
vt 0.531250 0.500000
vt 0.531250 0.500000
vt 0.531250 1.000000
vt 0.500000 1.000000
vt 0.500000 0.500000
vt 0.562500 0.500000
vt 0.562500 1.000000
vt 0.468750 1.000000
vt 0.468750 0.500000
vt 0.593750 0.500000
vt 0.593750 1.000000
vt 0.437500 1.000000
vt 0.437500 0.500000
vt 0.625000 0.500000
vt 0.625000 1.000000
vt 0.406250 1.000000
vt 0.406250 0.500000
vt 0.656250 0.500000
vt 0.656250 1.000000
vt 0.375000 1.000000
vt 0.375000 0.500000
vt 0.687500 0.500000
vt 0.687500 1.000000
vt 0.343750 1.000000
vt 0.343750 0.500000
vt 0.718750 0.500000
vt 0.718750 1.000000
vt 0.312500 1.000000
vt 0.312500 0.500000
vt 0.375000 0.000000
vt 0.625000 0.000000
vt 0.625000 0.250000
vt 0.375000 0.250000
vt 0.750000 0.500000
vt 0.750000 1.000000
vt 0.281250 1.000000
vt 0.281250 0.500000
vt 0.375000 0.250000
vt 0.625000 0.250000
vt 0.625000 0.500000
vt 0.375000 0.500000
vt 0.781250 0.500000
vt 0.781250 1.000000
vt 0.250000 1.000000
vt 0.250000 0.500000
vt 0.812500 0.500000
vt 0.812500 1.000000
vt 0.218750 1.000000
vt 0.218750 0.500000
vt 0.843750 0.500000
vt 0.843750 1.000000
vt 0.187500 1.000000
vt 0.187500 0.500000
vt 0.875000 0.500000
vt 0.875000 1.000000
vt 0.156250 1.000000
vt 0.156250 0.500000
vt 0.851687 0.500000
vt 0.875000 0.500000
vt 0.875000 0.750000
vt 0.851687 0.750000
vt 0.906250 0.500000
vt 0.906250 1.000000
vt 0.125000 1.000000
vt 0.125000 0.500000
vt 0.750000 0.490000
vt 0.796822 0.485388
vt 0.841844 0.471731
vt 0.883337 0.449553
vt 0.919706 0.419706
vt 0.949553 0.383337
vt 0.971731 0.341844
vt 0.985388 0.296822
vt 0.990000 0.250000
vt 0.985388 0.203178
vt 0.971731 0.158156
vt 0.949553 0.116663
vt 0.919706 0.080294
vt 0.883337 0.050447
vt 0.841844 0.028269
vt 0.796822 0.014612
vt 0.750000 0.010000
vt 0.703178 0.014612
vt 0.658156 0.028269
vt 0.616663 0.050447
vt 0.580294 0.080294
vt 0.550447 0.116663
vt 0.528269 0.158156
vt 0.514611 0.203179
vt 0.510000 0.250000
vt 0.514612 0.296822
vt 0.528269 0.341844
vt 0.550447 0.383337
vt 0.580295 0.419706
vt 0.616663 0.449553
vt 0.658156 0.471731
vt 0.703179 0.485389
vt 0.937500 0.500000
vt 0.937500 1.000000
vt 0.093750 1.000000
vt 0.093750 0.500000
vt 0.031250 0.500000
vt 0.031250 1.000000
vt 0.000000 1.000000
vt 0.000000 0.500000
vt 0.968750 0.500000
vt 0.968750 1.000000
vt 0.062500 1.000000
vt 0.062500 0.500000
vt 0.296822 0.485388
vt 0.250000 0.490000
vt 0.203179 0.485389
vt 0.158156 0.471731
vt 0.116663 0.449553
vt 0.080295 0.419706
vt 0.050447 0.383337
vt 0.028269 0.341844
vt 0.014612 0.296822
vt 0.010000 0.250000
vt 0.014611 0.203179
vt 0.028269 0.158156
vt 0.050447 0.116663
vt 0.080294 0.080294
vt 0.116663 0.050447
vt 0.158156 0.028269
vt 0.203178 0.014612
vt 0.250000 0.010000
vt 0.296822 0.014612
vt 0.341844 0.028269
vt 0.383337 0.050447
vt 0.419706 0.080294
vt 0.449553 0.116663
vt 0.471731 0.158156
vt 0.485388 0.203178
vt 0.490000 0.250000
vt 0.485388 0.296822
vt 0.471731 0.341844
vt 0.449553 0.383337
vt 0.419706 0.419706
vt 0.383337 0.449553
vt 0.341844 0.471731
vt 1.000000 0.500000
vt 1.000000 1.000000
vt 0.031250 1.000000
vt 0.031250 0.500000
vt 0.000000 1.000000
vt 0.000000 0.500000
vt 0.750000 0.490000
vt 0.796822 0.485388
vt 0.841844 0.471731
vt 0.883337 0.449553
vt 0.919706 0.419706
vt 0.949553 0.383337
vt 0.971731 0.341844
vt 0.985388 0.296822
vt 0.990000 0.250000
vt 0.985388 0.203178
vt 0.971731 0.158156
vt 0.949553 0.116663
vt 0.919706 0.080294
vt 0.883337 0.050447
vt 0.841844 0.028269
vt 0.796822 0.014612
vt 0.750000 0.010000
vt 0.703178 0.014612
vt 0.658156 0.028269
vt 0.616663 0.050447
vt 0.580294 0.080294
vt 0.550447 0.116663
vt 0.528269 0.158156
vt 0.514611 0.203179
vt 0.510000 0.250000
vt 0.514612 0.296822
vt 0.528269 0.341844
vt 0.550447 0.383337
vt 0.580295 0.419706
vt 0.616663 0.449553
vt 0.658156 0.471731
vt 0.703179 0.485389
vt 0.625000 0.500000
vt 0.625000 0.750000
vt 0.125000 0.500000
vt 0.351687 0.500000
vt 0.351687 0.750000
vt 0.125000 0.750000
vt 0.375000 0.750000
vt 0.601687 0.750000
vt 0.601687 1.000000
vt 0.375000 1.000000
vt 0.375000 0.500000
vt 0.601687 0.500000
vt 0.601687 0.750000
vt 0.375000 0.750000
vt 0.273073 0.500000
vt 0.252820 0.500000
vt 0.252820 0.500000
vt 0.273073 0.500000
vt 0.375000 0.377820
vt 0.625000 0.377820
vt 0.625000 0.398073
vt 0.375000 0.398073
vt 0.625000 0.377820
vt 0.625000 0.398073
vt 0.375000 0.377820
vt 0.375000 0.398073
vt 0.375000 0.227998
vt 0.625000 0.227998
vt 0.625000 0.250000
vt 0.375000 0.250000
vt 0.375000 0.398073
vt 0.625000 0.398073
vt 0.625000 0.500000
vt 0.375000 0.500000
vt 0.375000 0.722968
vt 0.625000 0.722968
vt 0.625000 0.750000
vt 0.375000 0.750000
vt 0.375000 0.872180
vt 0.625000 0.872180
vt 0.625000 1.000000
vt 0.375000 1.000000
vt 0.273073 0.722968
vt 0.273073 0.750000
vt 0.625000 0.722968
vt 0.625000 0.750000
vt 0.625000 0.500000
vt 0.625000 0.750000
vt 0.625000 0.750000
vt 0.625000 1.000000
vt 0.375000 0.500000
vt 0.375000 0.750000
vt 0.625000 0.522002
vt 0.625000 0.500000
vt 0.625000 0.522002
vt 0.273073 0.500000
vt 0.375000 0.522002
vt 0.273073 0.522002
vt 0.375000 0.027032
vt 0.625000 0.027032
vt 0.375000 0.000000
vt 0.625000 0.000000
vt 0.747180 0.522002
vt 0.875000 0.522002
vt 0.875000 0.722968
vt 0.747180 0.722968
vt 0.747180 0.500000
vt 0.875000 0.500000
vt 0.875000 0.522002
vt 0.747180 0.522002
vt 0.625000 0.227998
vt 0.625000 0.250000
vt 0.726927 0.522002
vt 0.726927 0.522002
vt 0.625000 0.377820
vt 0.625000 0.377820
vt 0.747180 0.722968
vt 0.875000 0.722968
vt 0.875000 0.750000
vt 0.747180 0.750000
vt 0.625000 0.000000
vt 0.625000 0.027032
vt 0.625000 0.851927
vt 0.625000 0.851927
vt 0.726927 0.722968
vt 0.726927 0.722968
vt 0.625000 0.872180
vt 0.726927 0.750000
vt 0.625000 0.398073
vt 0.726927 0.500000
vt 0.252820 0.522002
vt 0.252820 0.722968
vt 0.252820 0.500000
vt 0.252820 0.750000
vt 0.375000 0.851927
vt 0.375000 0.377820
vt 0.125000 0.722968
vt 0.125000 0.750000
vt 0.125000 0.500000
vt 0.125000 0.522002
vt 0.625000 1.000000
vn 0.0000 1.0000 -0.0000
vn -0.0980 0.0000 0.9952
vn 0.4714 0.0000 0.8819
vn -0.2903 0.0000 0.9569
vn 0.6344 0.0000 0.7730
vn -0.4714 0.0000 0.8819
vn 0.7730 0.0000 0.6344
vn -0.6344 0.0000 0.7730
vn 0.8819 0.0000 0.4714
vn -0.7730 0.0000 0.6344
vn 0.9569 0.0000 0.2903
vn -0.8819 0.0000 0.4714
vn 0.9952 0.0000 0.0980
vn -0.9569 0.0000 0.2903
vn 0.9952 0.0000 -0.0980
vn -0.9952 0.0000 0.0980
vn 0.9569 0.0000 -0.2903
vn -0.9952 0.0000 -0.0980
vn 0.8819 0.0000 -0.4714
vn -0.9569 0.0000 -0.2903
vn 0.7730 0.0000 -0.6344
vn -0.8819 0.0000 -0.4714
vn 0.6344 0.0000 -0.7730
vn -0.7730 0.0000 -0.6344
vn 0.4714 0.0000 -0.8819
vn -0.6344 0.0000 -0.7730
vn 0.2903 0.0000 -0.9569
vn -0.4714 0.0000 -0.8819
vn 0.0980 0.0000 -0.9952
vn -0.2903 0.0000 -0.9569
vn -0.0980 0.0000 -0.9952
vn 0.0000 -1.0000 0.0000
vn -1.0000 0.0000 0.0000
vn 0.0980 0.0000 0.9952
vn 0.2903 0.0000 0.9569
vn 0.0000 0.0000 -1.0000
vn 0.8395 0.5434 0.0000
vn 0.0000 0.0000 1.0000
vn 1.0000 0.0000 0.0000
usemtl Material.034
s off
f 76/1/1 9/2/1 136/3/1 134/4/1 132/5/1 130/6/1 128/7/1 126/8/1 124/9/1 122/10/1 120/11/1 118/12/1 116/13/1 114/14/1 112/15/1 110/16/1 108/17/1 106/18/1 104/19/1 102/20/1 100/21/1 98/22/1 96/23/1 94/24/1 92/25/1 90/26/1 88/27/1 86/28/1 84/29/1 82/30/1 80/31/1 78/32/1
f 11/33/2 12/34/2 14/35/2 13/36/2
f 131/37/3 132/38/3 134/39/3 133/40/3
f 13/36/4 14/35/4 16/41/4 15/42/4
f 129/43/5 130/44/5 132/38/5 131/37/5
f 15/42/6 16/41/6 18/45/6 17/46/6
f 127/47/7 128/48/7 130/44/7 129/43/7
f 17/46/8 18/45/8 20/49/8 19/50/8
f 125/51/9 126/52/9 128/48/9 127/47/9
f 19/50/10 20/49/10 22/53/10 21/54/10
f 123/55/11 124/56/11 126/52/11 125/51/11
f 21/54/12 22/53/12 24/57/12 23/58/12
f 121/59/13 122/60/13 124/56/13 123/55/13
f 23/58/14 24/57/14 26/61/14 25/62/14
f 119/63/15 120/64/15 122/60/15 121/59/15
f 25/62/16 26/61/16 28/65/16 27/66/16
f 117/67/17 118/68/17 120/64/17 119/63/17
f 27/66/18 28/65/18 30/69/18 29/70/18
f 115/71/19 116/72/19 118/68/19 117/67/19
f 29/70/20 30/69/20 32/73/20 31/74/20
f 113/75/21 114/76/21 116/72/21 115/71/21
f 31/74/22 32/73/22 34/77/22 33/78/22
f 111/79/23 112/80/23 114/76/23 113/75/23
f 33/78/24 34/77/24 36/81/24 35/82/24
f 109/83/25 110/84/25 112/80/25 111/79/25
f 35/82/26 36/81/26 38/85/26 37/86/26
f 107/87/27 108/88/27 110/84/27 109/83/27
f 37/86/28 38/85/28 40/89/28 39/90/28
f 105/91/29 106/92/29 108/88/29 107/87/29
f 39/90/30 40/89/30 42/93/30 41/94/30
f 103/95/31 104/96/31 106/92/31 105/91/31
f 41/94/31 42/93/31 44/97/31 43/98/31
f 101/99/30 102/100/30 104/96/30 103/95/30
f 43/98/29 44/97/29 46/101/29 45/102/29
f 99/103/28 100/104/28 102/100/28 101/99/28
f 45/102/27 46/101/27 48/105/27 47/106/27
f 97/107/26 98/108/26 100/104/26 99/103/26
f 47/106/25 48/105/25 50/109/25 49/110/25
f 95/111/24 96/112/24 98/108/24 97/107/24
f 49/110/23 50/109/23 52/113/23 51/114/23
f 93/115/22 94/116/22 96/112/22 95/111/22
f 51/114/21 52/113/21 54/117/21 53/118/21
f 91/119/20 92/120/20 94/116/20 93/115/20
f 53/118/19 54/117/19 56/121/19 55/122/19
f 144/123/1 140/124/1 138/125/1 142/126/1
f 89/127/18 90/128/18 92/120/18 91/119/18
f 55/122/17 56/121/17 58/129/17 57/130/17
f 139/131/32 143/132/32 141/133/32 137/134/32
f 87/135/16 88/136/16 90/128/16 89/127/16
f 57/130/15 58/129/15 60/137/15 59/138/15
f 85/139/14 86/140/14 88/136/14 87/135/14
f 59/138/13 60/137/13 62/141/13 61/142/13
f 83/143/12 84/144/12 86/140/12 85/139/12
f 61/142/11 62/141/11 64/145/11 63/146/11
f 81/147/10 82/148/10 84/144/10 83/143/10
f 63/146/9 64/145/9 66/149/9 65/150/9
f 193/151/33 138/152/33 140/153/33 194/154/33
f 79/155/8 80/156/8 82/148/8 81/147/8
f 65/150/7 66/149/7 68/157/7 67/158/7
f 10/159/32 75/160/32 77/161/32 79/162/32 81/163/32 83/164/32 85/165/32 87/166/32 89/167/32 91/168/32 93/169/32 95/170/32 97/171/32 99/172/32 101/173/32 103/174/32 105/175/32 107/176/32 109/177/32 111/178/32 113/179/32 115/180/32 117/181/32 119/182/32 121/183/32 123/184/32 125/185/32 127/186/32 129/187/32 131/188/32 133/189/32 135/190/32
f 77/191/6 78/192/6 80/156/6 79/155/6
f 67/158/5 68/157/5 70/193/5 69/194/5
f 135/195/34 136/196/34 9/197/34 10/198/34
f 75/199/4 76/200/4 78/192/4 77/191/4
f 69/194/3 70/193/3 72/201/3 71/202/3
f 14/203/1 12/204/1 74/205/1 72/206/1 70/207/1 68/208/1 66/209/1 64/210/1 62/211/1 60/212/1 58/213/1 56/214/1 54/215/1 52/216/1 50/217/1 48/218/1 46/219/1 44/220/1 42/221/1 40/222/1 38/223/1 36/224/1 34/225/1 32/226/1 30/227/1 28/228/1 26/229/1 24/230/1 22/231/1 20/232/1 18/233/1 16/234/1
f 10/235/2 9/236/2 76/200/2 75/199/2
f 71/202/35 72/201/35 74/237/35 73/238/35
f 133/40/35 134/39/35 136/196/35 135/195/35
f 73/238/34 74/237/34 12/239/34 11/240/34
f 11/241/32 13/242/32 15/243/32 17/244/32 19/245/32 21/246/32 23/247/32 25/248/32 27/249/32 29/250/32 31/251/32 33/252/32 35/253/32 37/254/32 39/255/32 41/256/32 43/257/32 45/258/32 47/259/32 49/260/32 51/261/32 53/262/32 55/263/32 57/264/32 59/265/32 61/266/32 63/267/32 65/268/32 67/269/32 69/270/32 71/271/32 73/272/32
f 137/273/33 193/151/33 194/154/33 139/274/33
f 139/275/36 194/276/36 195/277/36 143/278/36
f 143/279/37 195/280/37 196/281/37 141/282/37
f 141/283/38 196/284/38 193/285/38 137/286/38
usemtl Material.035
f 187/287/32 188/288/32 192/289/32 191/290/32
f 192/291/36 189/292/36 190/293/36 191/294/36
f 185/295/1 186/296/1 190/293/1 189/292/1
f 188/297/33 185/295/33 189/292/33 192/291/33
f 186/296/39 187/298/39 191/294/39 190/293/39
usemtl Material.036
f 145/299/33 146/300/33 4/301/33 3/302/33
f 161/303/36 162/304/36 8/305/36 7/306/36
f 152/307/39 150/308/39 6/309/39 5/310/39
f 179/311/38 174/312/38 2/313/38 1/314/38
f 168/315/32 152/307/32 5/310/32 163/316/32
f 6/309/39 150/308/39 157/317/39 158/318/39
f 196/284/38 142/319/38 138/320/38 193/285/38
f 195/280/37 144/321/37 142/322/37 196/281/37
f 194/276/36 140/323/36 144/324/36 195/277/36
f 148/325/39 8/305/39 155/326/39 156/327/39
f 161/328/32 7/306/32 147/329/32 166/330/32
f 7/306/39 8/305/39 148/325/39 147/329/39
f 149/331/33 151/332/33 146/300/33 145/299/33
f 1/333/33 2/334/33 151/332/33 149/331/33
f 180/335/1 146/336/1 151/337/1 181/338/1
f 166/330/32 147/329/32 152/307/32 168/315/32
f 147/329/39 148/325/39 150/308/39 152/307/39
f 182/339/1 154/340/1 153/341/1 183/342/1
f 4/301/33 146/300/33 153/343/33 154/344/33
f 165/345/38 148/325/38 156/327/38 170/346/38
f 178/347/36 4/301/36 154/344/36 182/348/36
f 184/349/1 160/350/1 159/351/1 177/352/1
f 151/332/33 2/334/33 159/353/33 160/354/33
f 164/355/38 6/309/38 158/318/38 171/356/38
f 181/338/36 151/337/36 160/350/36 184/349/36
f 150/308/36 167/357/36 172/358/36 157/317/36
f 174/312/38 164/355/38 171/356/38 177/359/38
f 157/317/1 172/358/1 171/360/1 158/318/1
f 8/305/36 162/304/36 169/361/36 155/326/36
f 180/335/38 165/345/38 170/346/38 183/342/38
f 155/326/1 169/362/1 170/346/1 156/327/1
f 175/363/32 166/330/32 168/315/32 176/364/32
f 148/325/1 165/345/1 167/357/1 150/308/1
f 173/365/32 161/328/32 166/330/32 175/363/32
f 176/364/32 168/315/32 163/316/32 179/366/32
f 5/310/38 6/309/38 164/355/38 163/367/38
f 161/328/36 173/365/36 188/288/36 187/287/36
f 3/302/36 4/301/36 178/347/36 173/368/36
f 149/369/32 176/364/32 179/366/32 1/370/32
f 3/371/32 173/365/32 175/363/32 145/372/32
f 145/372/32 175/363/32 176/364/32 149/369/32
f 146/336/38 180/335/38 183/342/38 153/341/38
f 2/313/38 174/312/38 177/359/38 159/373/38
f 167/357/36 181/338/36 184/349/36 172/358/36
f 172/358/1 184/349/1 177/352/1 171/360/1
f 162/304/36 178/347/36 182/348/36 169/361/36
f 169/362/1 182/339/1 183/342/1 170/346/1
f 165/345/1 180/335/1 181/338/1 167/357/1
f 163/367/38 164/355/38 174/312/38 179/311/38
f 173/368/36 178/347/36 185/295/36 188/297/36
f 178/347/36 162/304/36 186/296/36 185/295/36
f 162/304/36 161/303/36 187/298/36 186/296/36
