# Blender v2.90.1 OBJ File: 'Car.blend'
# www.blender.org
mtllib GradinClosed.mtl
o Cube.004_Cube.006
v -4.009521 -2.343449 2.333171
v -4.009521 -2.306427 2.333171
v -4.009521 -2.343449 -2.348315
v -4.009521 1.588948 -2.348315
v 5.795549 -2.343449 2.333171
v 5.795549 -2.306427 2.333171
v 5.795549 -2.343449 -2.348315
v 5.795549 1.588948 -2.348315
v -4.009521 -2.343449 -0.007572
v -4.009521 -0.358740 -0.007572
v 5.795549 -2.343449 -0.007572
v 5.795549 -0.358740 -0.007572
v -4.009521 0.615104 -1.177943
v 5.795549 -2.343449 -1.177943
v -4.009521 -2.343449 -1.177943
v 5.795549 0.615104 -1.177943
v -4.009521 1.102026 -1.763129
v 5.795549 -2.343449 -1.763129
v -4.009521 -2.343449 -1.763129
v 5.795549 1.102026 -1.763129
v -4.009521 1.345487 -2.055722
v 5.795549 -2.343449 -2.055722
v -4.009521 -2.343449 -2.055722
v 5.795549 1.345487 -2.055722
v -4.009521 -2.343449 1.162800
v 5.795549 -1.332584 1.162800
v -4.009521 -1.332584 1.162800
v 5.795549 -2.343449 1.162800
v -4.009521 -2.343449 -1.470536
v 5.795549 0.858565 -1.470536
v -4.009521 0.858565 -1.470536
v 5.795549 -2.343449 -1.470536
v -4.009521 -2.343449 -0.592757
v 5.795549 0.128182 -0.592757
v -4.009521 0.128182 -0.592757
v 5.795549 -2.343449 -0.592757
v -4.009521 0.371643 -0.885350
v 5.795549 -2.343449 -0.885350
v -4.009521 -2.343449 -0.885350
v 5.795549 0.371643 -0.885350
v -4.009521 -2.343449 -0.300165
v 5.795549 -0.115279 -0.300165
v -4.009521 -0.115279 -0.300165
v 5.795549 -2.343449 -0.300165
v -4.009521 -0.845662 0.577614
v 5.795549 -2.343449 0.577614
v -4.009521 -2.343449 0.577614
v 5.795549 -0.845662 0.577614
v -4.009521 -2.343449 0.870207
v 5.795549 -1.089123 0.870207
v -4.009521 -1.089123 0.870207
v 5.795549 -2.343449 0.870207
v -4.009521 -0.602201 0.285021
v 5.795549 -2.343449 0.285021
v -4.009521 -2.343449 0.285021
v 5.795549 -0.602201 0.285021
v -4.009521 -2.343449 1.747985
v 5.795549 -1.819506 1.747985
v -4.009521 -1.819506 1.747985
v 5.795549 -2.343449 1.747985
v -4.009521 -1.576045 1.455393
v 5.795549 -2.343449 1.455393
v -4.009521 -2.343449 1.455393
v 5.795549 -1.576045 1.455393
v -4.009521 -2.343449 2.040578
v 5.795549 -2.062966 2.040578
v -4.009521 -2.062966 2.040578
v 5.795549 -2.343449 2.040578
v -4.009521 -2.343449 2.186875
v 5.795549 -2.066031 2.186875
v -4.009521 -2.066031 2.186875
v 5.795549 -2.343449 2.186875
v -4.009521 -1.824406 1.894282
v 5.795549 -2.343449 1.894282
v -4.009521 -2.343449 1.894282
v 5.795549 -1.824406 1.894282
v -4.009521 -2.343449 1.601689
v 5.795549 -1.573351 1.601689
v -4.009521 -1.573351 1.601689
v 5.795549 -2.343449 1.601689
v -4.009521 -1.332227 1.309096
v 5.795549 -2.343449 1.309096
v -4.009521 -2.343449 1.309096
v 5.795549 -1.332227 1.309096
v -4.009521 -2.343449 1.016503
v 5.795549 -1.094607 1.016503
v -4.009521 -1.094607 1.016503
v 5.795549 -2.343449 1.016503
v -4.009521 -0.851146 0.723910
v 5.795549 -2.343449 0.723910
v -4.009521 -2.343449 0.723910
v 5.795549 -0.851146 0.723910
v -4.009521 -2.343449 0.431318
v 5.795549 -0.607685 0.431318
v -4.009521 -0.607685 0.431318
v 5.795549 -2.343449 0.431318
v -4.009521 -0.364224 0.138725
v 5.795549 -2.343449 0.138725
v -4.009521 -2.343449 0.138725
v 5.795549 -0.364224 0.138725
v -4.009521 -2.343449 -0.153868
v 5.795549 -0.120763 -0.153868
v -4.009521 -0.120764 -0.153868
v 5.795549 -2.343449 -0.153868
v -4.009521 0.122697 -0.446461
v 5.795549 -2.343449 -0.446461
v -4.009521 -2.343449 -0.446461
v 5.795549 0.122698 -0.446461
v -4.009521 -2.343449 -0.739054
v 5.795549 0.366158 -0.739054
v -4.009521 0.366158 -0.739054
v 5.795549 -2.343449 -0.739054
v -4.009521 0.609619 -1.031647
v 5.795549 -2.343449 -1.031647
v -4.009521 -2.343449 -1.031647
v 5.795549 0.609619 -1.031647
v -4.009521 -2.343449 -1.324239
v 5.795549 0.853080 -1.324239
v -4.009521 0.853080 -1.324239
v 5.795549 -2.343449 -1.324239
v -4.009521 1.096541 -1.616832
v 5.795549 -2.343449 -1.616832
v -4.009521 -2.343449 -1.616832
v 5.795549 1.096541 -1.616832
v -4.009521 -2.343449 -1.909425
v 5.795549 1.340002 -1.909425
v -4.009521 1.340002 -1.909425
v 5.795549 -2.343449 -1.909425
v -4.009521 1.583463 -2.202018
v 5.795549 -2.343449 -2.202018
v -4.009521 -2.343449 -2.202018
v 5.795549 1.583463 -2.202018
v -4.009521 1.588948 -2.348315
v 5.795549 1.588948 -2.348315
v -4.009521 1.583463 -2.202018
v 5.795549 1.583463 -2.202018
v -4.009521 2.427903 -2.170361
v -4.009521 2.433387 -2.316657
v 5.795549 2.433387 -2.316657
v 5.795549 2.427903 -2.170361
v -4.009521 2.526703 -2.166657
v -4.009521 2.532187 -2.312954
v 5.795549 2.532187 -2.312954
v 5.795549 2.526703 -2.166657
v -4.009521 2.306159 1.077310
v 5.795549 2.306159 1.077310
v -4.009521 2.404960 1.081013
v 5.795549 2.404960 1.081013
vt 0.375000 0.250000
vt 0.625000 0.250000
vt 0.625000 0.500000
vt 0.375000 0.500000
vt 0.125000 0.742188
vt 0.375000 0.742188
vt 0.375000 0.750000
vt 0.125000 0.750000
vt 0.125000 0.617188
vt 0.375000 0.617188
vt 0.375000 0.625000
vt 0.125000 0.625000
vt 0.125000 0.554688
vt 0.375000 0.554688
vt 0.375000 0.562500
vt 0.125000 0.562500
vt 0.125000 0.523438
vt 0.375000 0.523438
vt 0.375000 0.531250
vt 0.125000 0.531250
vt 0.625000 0.523438
vt 0.625000 0.531250
vt 0.375000 0.210938
vt 0.625000 0.210938
vt 0.625000 0.218750
vt 0.375000 0.218750
vt 0.375000 0.507812
vt 0.625000 0.507812
vt 0.625000 0.515625
vt 0.375000 0.515625
vt 0.125000 0.507812
vt 0.125000 0.515625
vt 0.125000 0.679688
vt 0.375000 0.679688
vt 0.375000 0.687500
vt 0.125000 0.687500
vt 0.375000 0.195312
vt 0.625000 0.195312
vt 0.625000 0.203125
vt 0.375000 0.203125
vt 0.125000 0.539062
vt 0.375000 0.539062
vt 0.375000 0.546875
vt 0.125000 0.546875
vt 0.375000 0.148438
vt 0.625000 0.148437
vt 0.625000 0.156250
vt 0.375000 0.156250
vt 0.375000 0.585938
vt 0.625000 0.585938
vt 0.625000 0.593750
vt 0.375000 0.593750
vt 0.125000 0.585938
vt 0.125000 0.593750
vt 0.125000 0.570312
vt 0.375000 0.570312
vt 0.375000 0.578125
vt 0.125000 0.578125
vt 0.625000 0.570312
vt 0.625000 0.578125
vt 0.375000 0.132812
vt 0.625000 0.132812
vt 0.625000 0.140625
vt 0.375000 0.140625
vt 0.125000 0.601562
vt 0.375000 0.601562
vt 0.375000 0.609375
vt 0.125000 0.609375
vt 0.375000 0.648438
vt 0.625000 0.648438
vt 0.625000 0.656250
vt 0.375000 0.656250
vt 0.125000 0.648438
vt 0.125000 0.656250
vt 0.375000 0.085938
vt 0.625000 0.085937
vt 0.625000 0.093750
vt 0.375000 0.093750
vt 0.375000 0.070312
vt 0.625000 0.070312
vt 0.625000 0.078125
vt 0.375000 0.078125
vt 0.125000 0.664062
vt 0.375000 0.664062
vt 0.375000 0.671875
vt 0.125000 0.671875
vt 0.125000 0.632812
vt 0.375000 0.632812
vt 0.375000 0.640625
vt 0.125000 0.640625
vt 0.625000 0.632812
vt 0.625000 0.640625
vt 0.375000 0.023438
vt 0.625000 0.023437
vt 0.625000 0.031250
vt 0.375000 0.031250
vt 0.125000 0.710938
vt 0.375000 0.710938
vt 0.375000 0.718750
vt 0.125000 0.718750
vt 0.625000 0.710938
vt 0.625000 0.718750
vt 0.375000 0.695312
vt 0.625000 0.695312
vt 0.625000 0.703125
vt 0.375000 0.703125
vt 0.125000 0.695312
vt 0.125000 0.703125
vt 0.375000 0.007812
vt 0.625000 0.007813
vt 0.625000 0.015625
vt 0.375000 0.015625
vt 0.125000 0.726562
vt 0.375000 0.726562
vt 0.375000 0.734375
vt 0.125000 0.734375
vt 0.375000 0.000000
vt 0.625000 0.000000
vt 0.625000 0.687500
vt 0.375000 0.062500
vt 0.625000 0.062500
vt 0.625000 0.625000
vt 0.375000 0.125000
vt 0.625000 0.125000
vt 0.625000 0.562500
vt 0.375000 0.187500
vt 0.625000 0.187500
vt 0.875000 0.500000
vt 0.875000 0.507812
vt 0.125000 0.500000
vt 0.625000 0.500000
vt 0.625000 0.507812
vt 0.875000 0.507812
vt 0.875000 0.500000
vt 0.875000 0.500000
vt 0.875000 0.507812
vt 0.875000 0.507812
vt 0.875000 0.500000
vt 0.625000 0.500000
vt 0.625000 0.507812
vt 0.875000 0.507812
vt 0.625000 0.507812
vt 0.625000 0.500000
vt 0.625000 0.507812
vt 0.625000 0.507812
vt 0.875000 0.507812
vt 0.375000 0.242188
vt 0.625000 0.242187
vt 0.625000 0.742188
vt 0.625000 0.750000
vt 0.625000 1.000000
vt 0.375000 1.000000
vt 0.875000 0.742188
vt 0.875000 0.750000
vt 0.625000 0.617187
vt 0.875000 0.617188
vt 0.875000 0.625000
vt 0.375000 0.117188
vt 0.625000 0.117188
vt 0.625000 0.554688
vt 0.875000 0.554688
vt 0.875000 0.562500
vt 0.375000 0.179688
vt 0.625000 0.179687
vt 0.875000 0.523438
vt 0.875000 0.531250
vt 0.875000 0.515625
vt 0.375000 0.226562
vt 0.625000 0.226563
vt 0.625000 0.234375
vt 0.375000 0.234375
vt 0.375000 0.054688
vt 0.625000 0.054687
vt 0.625000 0.679688
vt 0.875000 0.679688
vt 0.875000 0.687500
vt 0.625000 0.539062
vt 0.875000 0.539062
vt 0.875000 0.546875
vt 0.625000 0.546875
vt 0.875000 0.585938
vt 0.875000 0.593750
vt 0.875000 0.570312
vt 0.875000 0.578125
vt 0.375000 0.164062
vt 0.625000 0.164062
vt 0.625000 0.171875
vt 0.375000 0.171875
vt 0.625000 0.601562
vt 0.625000 0.609375
vt 0.875000 0.601562
vt 0.875000 0.609375
vt 0.875000 0.648438
vt 0.875000 0.656250
vt 0.625000 0.664062
vt 0.625000 0.671875
vt 0.875000 0.664062
vt 0.875000 0.671875
vt 0.875000 0.632812
vt 0.875000 0.640625
vt 0.375000 0.101562
vt 0.625000 0.101562
vt 0.625000 0.109375
vt 0.375000 0.109375
vt 0.875000 0.710938
vt 0.875000 0.718750
vt 0.875000 0.695312
vt 0.875000 0.703125
vt 0.375000 0.039062
vt 0.625000 0.039062
vt 0.625000 0.046875
vt 0.375000 0.046875
vt 0.625000 0.726562
vt 0.875000 0.726562
vt 0.875000 0.734375
vt 0.625000 0.734375
vn 0.0000 0.0000 -1.0000
vn 0.0000 -1.0000 0.0000
vn 1.0000 0.0000 0.0000
vn -1.0000 0.0000 0.0000
vn 0.0000 0.9993 0.0375
vn 0.0000 -0.9993 -0.0375
vn 0.0000 0.0375 -0.9993
vn 0.0000 0.0000 1.0000
vn 0.0000 0.5199 0.8542
vn -0.0000 0.5237 0.8519
vn 0.0000 0.5109 0.8596
vn 0.0000 0.5145 0.8575
vn 0.0000 0.5228 0.8525
vn 0.0000 0.9998 0.0209
vn 0.0000 0.9994 0.0335
vn 0.0000 0.9998 -0.0184
vn 0.0000 1.0000 -0.0024
vn 0.0000 -0.0375 0.9993
usemtl Material.021
s off
f 3/1/1 4/2/1 8/3/1 7/4/1
f 69/5/2 72/6/2 5/7/2 1/8/2
f 101/9/2 104/10/2 11/11/2 9/12/2
f 117/13/2 120/14/2 14/15/2 15/16/2
f 125/17/2 128/18/2 18/19/2 19/20/2
f 128/18/3 126/21/3 20/22/3 18/19/3
f 123/23/4 121/24/4 17/25/4 19/26/4
f 130/27/3 132/28/3 24/29/3 22/30/3
f 131/31/2 130/27/2 22/30/2 23/32/2
f 85/33/2 88/34/2 28/35/2 25/36/2
f 117/37/4 119/38/4 31/39/4 29/40/4
f 123/41/2 122/42/2 32/43/2 29/44/2
f 107/45/4 105/46/4 35/47/4 33/48/4
f 112/49/3 110/50/3 34/51/3 36/52/3
f 109/53/2 112/49/2 36/52/2 33/54/2
f 115/55/2 114/56/2 38/57/2 39/58/2
f 114/56/3 116/59/3 40/60/3 38/57/3
f 101/61/4 103/62/4 43/63/4 41/64/4
f 107/65/2 106/66/2 44/67/2 41/68/2
f 96/69/3 94/70/3 48/71/3 46/72/3
f 93/73/2 96/69/2 46/72/2 47/74/2
f 91/75/4 89/76/4 45/77/4 47/78/4
f 85/79/4 87/80/4 51/81/4 49/82/4
f 91/83/2 90/84/2 52/85/2 49/86/2
f 99/87/2 98/88/2 54/89/2 55/90/2
f 98/88/3 100/91/3 56/92/3 54/89/3
f 75/93/4 73/94/4 59/95/4 57/96/4
f 77/97/2 80/98/2 60/99/2 57/100/2
f 80/98/3 78/101/3 58/102/3 60/99/3
f 82/103/3 84/104/3 64/105/3 62/106/3
f 83/107/2 82/103/2 62/106/2 63/108/2
f 69/109/4 71/110/4 67/111/4 65/112/4
f 75/113/2 74/114/2 68/115/2 65/116/2
f 1/117/4 2/118/4 71/110/4 69/109/4
f 65/116/2 68/115/2 72/6/2 69/5/2
f 57/100/2 60/99/2 74/114/2 75/113/2
f 65/112/4 67/111/4 73/94/4 75/93/4
f 62/106/3 64/105/3 78/101/3 80/98/3
f 63/108/2 62/106/2 80/98/2 77/97/2
f 25/36/2 28/35/2 82/103/2 83/107/2
f 28/35/3 26/119/3 84/104/3 82/103/3
f 25/120/4 27/121/4 87/80/4 85/79/4
f 49/86/2 52/85/2 88/34/2 85/33/2
f 47/74/2 46/72/2 90/84/2 91/83/2
f 49/82/4 51/81/4 89/76/4 91/75/4
f 55/90/2 54/89/2 96/69/2 93/73/2
f 54/89/3 56/92/3 94/70/3 96/69/3
f 11/11/3 12/122/3 100/91/3 98/88/3
f 9/12/2 11/11/2 98/88/2 99/87/2
f 9/123/4 10/124/4 103/62/4 101/61/4
f 41/68/2 44/67/2 104/10/2 101/9/2
f 33/54/2 36/52/2 106/66/2 107/65/2
f 41/64/4 43/63/4 105/46/4 107/45/4
f 39/58/2 38/57/2 112/49/2 109/53/2
f 38/57/3 40/60/3 110/50/3 112/49/3
f 14/15/3 16/125/3 116/59/3 114/56/3
f 15/16/2 14/15/2 114/56/2 115/55/2
f 15/126/4 13/127/4 119/38/4 117/37/4
f 29/44/2 32/43/2 120/14/2 117/13/2
f 19/20/2 18/19/2 122/42/2 123/41/2
f 29/40/4 31/39/4 121/24/4 123/23/4
f 22/30/3 24/29/3 126/21/3 128/18/3
f 23/32/2 22/30/2 128/18/2 125/17/2
f 8/3/5 4/128/5 129/129/5 132/28/5
f 3/130/2 7/4/2 130/27/2 131/31/2
f 7/4/3 8/3/3 132/28/3 130/27/3
f 134/131/6 136/132/6 135/133/6 133/134/6
f 138/135/4 137/136/4 141/137/4 142/138/4
f 143/139/5 142/138/5 141/137/5 144/140/5
f 144/140/5 141/137/5 147/141/5 148/142/5
f 139/143/7 138/135/7 142/138/7 143/139/7
f 140/144/3 139/143/3 143/139/3 144/140/3
f 137/136/6 140/144/6 146/145/6 145/146/6
f 140/144/3 144/140/3 148/142/3 146/145/3
f 141/137/4 137/136/4 145/146/4 147/141/4
usemtl Material.022
f 131/147/4 129/148/4 4/2/4 3/1/4
f 72/6/3 70/149/3 6/150/3 5/7/3
f 5/7/8 6/150/8 2/151/8 1/152/8
f 70/149/9 71/153/9 2/154/9 6/150/9
f 102/155/10 103/156/10 10/157/10 12/122/10
f 104/10/3 102/155/3 12/122/3 11/11/3
f 99/158/4 97/159/4 10/124/4 9/123/4
f 120/14/3 118/160/3 16/125/3 14/15/3
f 118/160/10 119/161/10 13/162/10 16/125/10
f 115/163/4 113/164/4 13/127/4 15/126/4
f 126/21/10 127/165/10 17/166/10 20/22/10
f 132/28/10 129/129/10 21/167/10 24/29/10
f 125/168/4 127/169/4 21/170/4 23/171/4
f 83/172/4 81/173/4 27/121/4 25/120/4
f 86/174/10 87/175/10 27/176/10 26/119/10
f 88/34/3 86/174/3 26/119/3 28/35/3
f 124/177/10 121/178/10 31/179/10 30/180/10
f 122/42/3 124/177/3 30/180/3 32/43/3
f 110/50/10 111/181/10 35/182/10 34/51/10
f 116/59/10 113/183/10 37/184/10 40/60/10
f 109/185/4 111/186/4 37/187/4 39/188/4
f 106/66/3 108/189/3 42/190/3 44/67/3
f 108/189/10 105/191/10 43/192/10 42/190/10
f 94/70/10 95/193/10 45/194/10 48/71/10
f 90/84/3 92/195/3 50/196/3 52/85/3
f 92/195/10 89/197/10 51/198/10 50/196/10
f 100/91/10 97/199/10 53/200/10 56/92/10
f 93/201/4 95/202/4 53/203/4 55/204/4
f 78/101/11 79/205/11 59/206/11 58/102/11
f 84/104/12 81/207/12 61/208/12 64/105/12
f 77/209/4 79/210/4 61/211/4 63/212/4
f 76/213/13 73/214/13 67/215/13 66/216/13
f 74/114/3 76/213/3 66/216/3 68/115/3
f 66/216/14 67/215/14 71/153/14 70/149/14
f 68/115/3 66/216/3 70/149/3 72/6/3
f 60/99/3 58/102/3 76/213/3 74/114/3
f 58/102/15 59/206/15 73/214/15 76/213/15
f 57/96/4 59/95/4 79/210/4 77/209/4
f 64/105/16 61/208/16 79/205/16 78/101/16
f 26/119/17 27/176/17 81/207/17 84/104/17
f 63/212/4 61/211/4 81/173/4 83/172/4
f 52/85/3 50/196/3 86/174/3 88/34/3
f 50/196/5 51/198/5 87/175/5 86/174/5
f 48/71/5 45/194/5 89/197/5 92/195/5
f 46/72/3 48/71/3 92/195/3 90/84/3
f 47/78/4 45/77/4 95/202/4 93/201/4
f 56/92/5 53/200/5 95/193/5 94/70/5
f 12/122/5 10/157/5 97/199/5 100/91/5
f 55/204/4 53/203/4 97/159/4 99/158/4
f 44/67/3 42/190/3 102/155/3 104/10/3
f 42/190/5 43/192/5 103/156/5 102/155/5
f 34/51/5 35/182/5 105/191/5 108/189/5
f 36/52/3 34/51/3 108/189/3 106/66/3
f 33/48/4 35/47/4 111/186/4 109/185/4
f 40/60/5 37/184/5 111/181/5 110/50/5
f 16/125/5 13/162/5 113/183/5 116/59/5
f 39/188/4 37/187/4 113/164/4 115/163/4
f 30/180/5 31/179/5 119/161/5 118/160/5
f 32/43/3 30/180/3 118/160/3 120/14/3
f 18/19/3 20/22/3 124/177/3 122/42/3
f 20/22/5 17/166/5 121/178/5 124/177/5
f 19/26/4 17/25/4 127/169/4 125/168/4
f 24/29/5 21/167/5 127/165/5 126/21/5
f 23/171/4 21/170/4 129/148/4 131/147/4
f 136/132/3 134/131/3 139/143/3 140/144/3
f 133/134/4 135/133/4 137/136/4 138/135/4
f 135/133/18 136/132/18 140/144/18 137/136/18
f 134/131/7 133/134/7 138/135/7 139/143/7
f 145/146/18 146/145/18 148/142/18 147/141/18
