# Blender v2.90.1 OBJ File: 'Car.blend'
# www.blender.org
mtllib Rock.mtl
o Icosphere
v 0.141417 -0.899310 -0.011210
v 0.784493 -0.440149 0.541840
v -0.215503 -0.440150 0.866764
v -0.780501 -0.413773 0.074252
v -0.215503 -0.440150 -0.834535
v 0.784493 -0.440149 -0.509611
v 0.367003 0.184056 0.421958
v -0.727708 0.271067 0.177916
v -0.545280 0.175298 -0.521811
v 0.107850 0.195947 -0.727536
v 0.877237 0.121243 -0.223707
v 0.178976 0.346643 0.136414
v 0.142917 -0.600879 0.424320
v 0.650164 -0.694498 0.260661
v 0.487710 -0.369582 0.760661
v 0.911533 -0.518666 0.016115
v 0.486208 -0.843584 -0.292897
v -0.384313 -0.749962 -0.011210
v -0.546772 -0.425047 0.488787
v -0.101570 -0.843584 -0.483881
v -0.627304 -0.518666 -0.483882
v 0.323754 -0.518668 -0.792897
v 1.011943 -0.320647 0.325127
v 1.011943 -0.320647 -0.292898
v 0.060885 0.007070 1.016115
v 0.678400 -0.263164 0.380325
v -0.902119 -0.149780 0.019341
v -0.699141 0.007073 0.540732
v -0.183001 -0.399066 -0.774580
v -0.719691 -0.245549 -0.246962
v 0.709280 -0.299851 -0.746224
v 0.238267 -0.010779 -0.755110
v 0.700729 -0.070470 -0.168516
v -0.337122 0.205090 0.825126
v -0.648318 0.086498 0.031555
v -0.085211 0.166445 -0.610800
v 0.602916 0.229802 -0.480172
v 0.238424 0.314590 0.590544
v 0.609350 0.372309 -0.101757
v -0.482294 0.349668 0.323475
v -0.347156 0.349668 -0.294547
v 0.077182 0.554720 -0.480170
v 0.404981 -0.681126 -0.542897
v 0.880509 -0.057779 -0.388390
vt 0.818181 0.000000
vt 0.772726 0.078731
vt 0.863635 0.078731
vt 0.727272 0.157461
vt 0.681818 0.078731
vt 0.636363 0.157461
vt 0.090909 0.000000
vt 0.045454 0.078731
vt 0.136363 0.078731
vt 0.272727 0.000000
vt 0.227273 0.078731
vt 0.318182 0.078731
vt 0.454545 0.000000
vt 0.409090 0.078731
vt 0.500000 0.078731
vt 0.681818 0.236191
vt 0.909090 0.157461
vt 0.818181 0.157461
vt 0.863635 0.236191
vt 0.181818 0.157461
vt 0.090909 0.157461
vt 0.136363 0.236191
vt 0.363636 0.157461
vt 0.272727 0.157461
vt 0.318182 0.236191
vt 0.545454 0.157461
vt 0.454545 0.157461
vt 0.500000 0.236191
vt 0.772726 0.236191
vt 0.954545 0.236191
vt 0.227273 0.236191
vt 0.409090 0.236191
vt 0.590909 0.236191
vt 0.818181 0.314921
vt 0.727272 0.314921
vt 0.772726 0.393651
vt 1.000000 0.314921
vt 0.909091 0.314921
vt 0.954545 0.393651
vt 0.272727 0.314921
vt 0.181818 0.314921
vt 0.227273 0.393651
vt 0.454545 0.314921
vt 0.363636 0.314921
vt 0.409090 0.393651
vt 0.636363 0.314921
vt 0.545454 0.314921
vt 0.590909 0.393651
vt 0.500000 0.393651
vt 0.545454 0.472382
vt 0.318182 0.393651
vt 0.363636 0.472382
vt 0.136363 0.393651
vt 0.181818 0.472382
vt 0.090909 0.314921
vt 0.863635 0.393651
vt 0.909090 0.472382
vt 0.681818 0.393651
vt 0.727272 0.472382
vt 0.568181 0.275556
vt 0.045454 0.236191
vt 0.000000 0.157461
vt 0.477272 0.118096
vt 0.590909 0.078731
vt 0.636363 0.000000
vn 0.0301 -0.8246 0.5649
vn 0.6976 -0.6645 0.2678
vn -0.2281 -0.8028 0.5509
vn -0.2732 -0.9616 0.0271
vn 0.0455 -0.9891 -0.1400
vn 0.6324 -0.7291 0.2617
vn 0.1761 -0.4080 0.8958
vn -0.8372 -0.2891 0.4642
vn -0.4415 0.8336 -0.3319
vn 0.4601 -0.6919 -0.5565
vn 0.2322 0.7279 0.6451
vn -0.5298 0.0446 0.8470
vn -0.8036 -0.4510 -0.3883
vn -0.6677 0.7313 -0.1392
vn 0.7265 -0.4645 -0.5064
vn 0.8357 0.4809 0.2651
vn -0.4743 0.7999 0.3678
vn -0.6593 0.7519 -0.0021
vn -0.5101 0.4582 -0.7279
vn 0.5779 0.7605 -0.2962
vn 0.1103 0.9471 0.3014
vn 0.4994 0.8080 -0.3128
vn 0.3418 0.5531 -0.7598
vn -0.2800 0.8946 0.3481
vn -0.5332 0.4615 -0.7090
vn -0.0914 0.8269 -0.5548
vn 0.0049 1.0000 0.0011
vn -0.7432 0.6491 -0.1625
vn 0.2141 0.6618 -0.7184
vn 0.0236 0.9975 0.0673
vn -0.0621 0.9541 0.2930
vn 0.4029 -0.5489 0.7323
vn -0.0191 0.9972 0.0729
vn 0.8725 0.1082 0.4765
vn 0.3619 -0.0655 0.9299
vn 0.7831 0.4287 -0.4505
vn 0.7335 0.3460 -0.5850
vn 0.3670 0.4753 -0.7996
vn -0.4860 -0.1929 -0.8524
vn -0.2416 0.3083 -0.9201
vn -0.1755 0.3017 -0.9371
vn -0.9429 0.3084 -0.1261
vn -0.5368 0.6069 -0.5860
vn -0.3920 0.4622 -0.7954
vn -0.6776 0.5683 0.4668
vn -0.5147 -0.2408 0.8229
vn 0.2515 0.8845 0.3930
vn 0.8095 0.5429 0.2235
vn 0.2132 0.9191 0.3314
vn -0.4814 0.6212 0.6183
vn 0.1579 0.2278 -0.9608
vn 0.0715 0.0860 -0.9937
vn 0.0895 0.0889 -0.9920
vn -0.7146 -0.1501 -0.6832
vn -0.5735 0.4174 -0.7049
vn -0.9632 -0.1153 -0.2427
vn -0.9205 0.2780 0.2747
vn -0.8345 -0.3458 0.4289
vn -0.7172 -0.3269 0.6155
vn 0.7269 0.4586 0.5111
vn 0.7221 0.4814 0.4968
vn 0.5115 0.7260 0.4596
vn 0.9565 0.2916 0.0000
vn 0.8919 -0.4523 0.0000
vn 0.6324 -0.7291 -0.2617
vn 0.4713 -0.6617 -0.5831
vn 0.1876 -0.7947 -0.5773
vn -0.0385 -0.6617 -0.7488
vn -0.4089 -0.6617 -0.6284
vn -0.5202 -0.8417 -0.1445
vn -0.6511 -0.7581 -0.0362
vn -0.5771 -0.7576 0.3048
vn -0.1704 -0.8506 0.4974
vn -0.2294 -0.9596 0.1627
vn 0.7002 -0.6617 -0.2680
vn 0.5859 -0.8092 0.0444
vn 0.2896 -0.9423 0.1680
vn 0.1558 -0.8812 0.4463
vn 0.0234 -0.8348 0.5501
vn 0.2458 -0.7744 0.5831
usemtl Material.013
s off
f 1/1/1 14/2/1 13/3/1
f 2/4/2 14/5/2 16/6/2
f 1/7/3 13/8/3 18/9/3
f 1/10/4 18/11/4 20/12/4
f 1/13/5 20/14/5 17/15/5
f 2/4/6 16/6/6 23/16/6
f 3/17/7 15/18/7 25/19/7
f 4/20/8 19/21/8 27/22/8
f 5/23/9 21/24/9 29/25/9
f 6/26/10 22/27/10 31/28/10
f 2/4/11 23/16/11 26/29/11
f 3/17/12 25/19/12 28/30/12
f 4/20/13 27/22/13 30/31/13
f 5/23/14 29/25/14 32/32/14
f 6/26/15 31/28/15 24/33/15
f 7/34/16 33/35/16 38/36/16
f 8/37/17 34/38/17 40/39/17
f 9/40/18 35/41/18 41/42/18
f 10/43/19 36/44/19 42/45/19
f 11/46/20 37/47/20 39/48/20
f 39/48/21 42/49/21 12/50/21
f 39/48/22 37/47/22 42/49/22
f 37/47/23 10/43/23 42/49/23
f 42/45/24 41/51/24 12/52/24
f 42/45/25 36/44/25 41/51/25
f 36/44/26 9/40/26 41/51/26
f 41/42/27 40/53/27 12/54/27
f 41/42/28 35/41/28 40/53/28
f 35/41/29 8/55/29 40/53/29
f 40/39/30 38/56/30 12/57/30
f 40/39/31 34/38/31 38/56/31
f 34/38/32 7/34/32 38/56/32
f 38/36/33 39/58/33 12/59/33
f 38/36/34 33/35/34 39/58/34
f 33/35/35 11/46/35 39/58/35
f 24/33/36 44/60/36 37/47/36 11/46/36
f 24/33/37 31/28/37 37/47/37 44/60/37
f 31/28/38 10/43/38 37/47/38
f 32/32/39 36/44/39 10/43/39
f 32/32/40 29/25/40 36/44/40
f 29/25/41 9/40/41 36/44/41
f 30/31/42 35/41/42 9/40/42
f 30/31/43 27/22/43 35/41/43
f 27/22/44 8/55/44 35/41/44
f 28/30/45 34/38/45 8/37/45
f 28/30/46 25/19/46 34/38/46
f 25/19/47 7/34/47 34/38/47
f 26/29/48 33/35/48 7/34/48
f 26/29/49 23/16/49 33/35/49
f 23/16/50 11/46/50 33/35/50
f 31/28/51 32/32/51 10/43/51
f 31/28/52 22/27/52 32/32/52
f 22/27/53 5/23/53 32/32/53
f 29/25/54 30/31/54 9/40/54
f 29/25/55 21/24/55 30/31/55
f 21/24/56 4/20/56 30/31/56
f 27/22/57 28/61/57 8/55/57
f 27/22/58 19/21/58 28/61/58
f 19/21/59 3/62/59 28/61/59
f 25/19/60 26/29/60 7/34/60
f 25/19/61 15/18/61 26/29/61
f 15/18/62 2/4/62 26/29/62
f 23/16/63 24/33/63 11/46/63
f 23/16/64 16/6/64 24/33/64
f 16/6/65 6/26/65 24/33/65
f 17/15/66 43/63/66 22/27/66 6/26/66
f 17/15/67 20/14/67 22/27/67 43/63/67
f 20/14/68 5/23/68 22/27/68
f 20/12/69 21/24/69 5/23/69
f 20/12/70 18/11/70 21/24/70
f 18/11/71 4/20/71 21/24/71
f 18/9/72 19/21/72 4/20/72
f 18/9/73 13/8/73 19/21/73
f 13/8/74 3/62/74 19/21/74
f 16/6/75 17/64/75 6/26/75
f 16/6/76 14/5/76 17/64/76
f 14/5/77 1/65/77 17/64/77
f 13/3/78 15/18/78 3/17/78
f 13/3/79 14/2/79 15/18/79
f 14/2/80 2/4/80 15/18/80
